<mxGraphModel dx="746" dy="684" grid="1" gridSize="10" guides="1" tooltips="1" connect="1" arrows="1" fold="1" page="1" pageScale="1" pageWidth="827" pageHeight="1169" math="0" shadow="0"><root><mxCell id="0"/><mxCell id="1" parent="0"/><mxCell id="FbLhNRuiKbBXZZqjKNMc-1" value="前台gateway" style="rounded=1;whiteSpace=wrap;html=1;" parent="1" vertex="1"><mxGeometry x="90" y="80" width="120" height="60" as="geometry"/></mxCell><mxCell id="FbLhNRuiKbBXZZqjKNMc-2" value="後台gateway" style="rounded=1;whiteSpace=wrap;html=1;" parent="1" vertex="1"><mxGeometry x="790" y="90" width="120" height="60" as="geometry"/></mxCell><mxCell id="FbLhNRuiKbBXZZqjKNMc-3" value="總控gateway" style="rounded=1;whiteSpace=wrap;html=1;" parent="1" vertex="1"><mxGeometry x="930" y="90" width="120" height="60" as="geometry"/></mxCell><mxCell id="FbLhNRuiKbBXZZqjKNMc-4" value="金流gateway" style="rounded=1;whiteSpace=wrap;html=1;" parent="1" vertex="1"><mxGeometry x="220" y="80" width="120" height="60" as="geometry"/></mxCell><mxCell id="FbLhNRuiKbBXZZqjKNMc-5" value="遊戲gateway" style="rounded=1;whiteSpace=wrap;html=1;" parent="1" vertex="1"><mxGeometry x="230" y="120" width="120" height="60" as="geometry"/></mxCell><mxCell id="FbLhNRuiKbBXZZqjKNMc-6" value="代理gateway" style="rounded=1;whiteSpace=wrap;html=1;" parent="1" vertex="1"><mxGeometry x="800" y="130" width="120" height="60" as="geometry"/></mxCell><mxCell id="FbLhNRuiKbBXZZqjKNMc-7" value="fe-game" style="rounded=1;whiteSpace=wrap;html=1;" parent="1" vertex="1"><mxGeometry x="260" y="305" width="120" height="60" as="geometry"/></mxCell><mxCell id="FbLhNRuiKbBXZZqjKNMc-8" value="fe-payment" style="rounded=1;whiteSpace=wrap;html=1;" parent="1" vertex="1"><mxGeometry x="270" y="345" width="120" height="60" as="geometry"/></mxCell><mxCell id="FbLhNRuiKbBXZZqjKNMc-9" value="..." style="rounded=1;whiteSpace=wrap;html=1;" parent="1" vertex="1"><mxGeometry x="280" y="385" width="120" height="60" as="geometry"/></mxCell><mxCell id="FbLhNRuiKbBXZZqjKNMc-10" value="fe-user-aggs" style="rounded=1;whiteSpace=wrap;html=1;" parent="1" vertex="1"><mxGeometry x="50" y="295" width="120" height="60" as="geometry"/></mxCell><mxCell id="FbLhNRuiKbBXZZqjKNMc-11" value="fe-game-aggs" style="rounded=1;whiteSpace=wrap;html=1;" parent="1" vertex="1"><mxGeometry x="60" y="340" width="120" height="60" as="geometry"/></mxCell><mxCell id="FbLhNRuiKbBXZZqjKNMc-12" value="..." style="rounded=1;whiteSpace=wrap;html=1;" parent="1" vertex="1"><mxGeometry x="70" y="380" width="120" height="60" as="geometry"/></mxCell><mxCell id="FbLhNRuiKbBXZZqjKNMc-13" value="" style="rounded=0;whiteSpace=wrap;html=1;fillColor=none;strokeColor=#b85450;strokeWidth=2;" parent="1" vertex="1"><mxGeometry x="70" y="60" width="290" height="140" as="geometry"/></mxCell><mxCell id="FbLhNRuiKbBXZZqjKNMc-14" value="FE-Gateway Layer" style="text;html=1;strokeColor=none;fillColor=none;align=center;verticalAlign=middle;whiteSpace=wrap;rounded=0;" parent="1" vertex="1"><mxGeometry x="70" y="40" width="110" height="20" as="geometry"/></mxCell><mxCell id="FbLhNRuiKbBXZZqjKNMc-15" value="" style="rounded=0;whiteSpace=wrap;html=1;fillColor=none;strokeColor=#b85450;strokeWidth=2;" parent="1" vertex="1"><mxGeometry x="770" y="70" width="290" height="140" as="geometry"/></mxCell><mxCell id="FbLhNRuiKbBXZZqjKNMc-16" value="BE-Gateway Layer" style="text;html=1;strokeColor=none;fillColor=none;align=center;verticalAlign=middle;whiteSpace=wrap;rounded=0;" parent="1" vertex="1"><mxGeometry x="770" y="50" width="110" height="20" as="geometry"/></mxCell><mxCell id="FbLhNRuiKbBXZZqjKNMc-26" value="" style="edgeStyle=orthogonalEdgeStyle;rounded=0;orthogonalLoop=1;jettySize=auto;html=1;" parent="1" source="FbLhNRuiKbBXZZqjKNMc-17" target="FbLhNRuiKbBXZZqjKNMc-25" edge="1"><mxGeometry relative="1" as="geometry"/></mxCell><mxCell id="FbLhNRuiKbBXZZqjKNMc-17" value="" style="rounded=0;whiteSpace=wrap;html=1;strokeWidth=2;fillColor=none;strokeColor=#6c8ebf;" parent="1" vertex="1"><mxGeometry x="40" y="280" width="160" height="185" as="geometry"/></mxCell><mxCell id="FbLhNRuiKbBXZZqjKNMc-18" value="FE-Aggregation Layer" style="text;html=1;strokeColor=none;fillColor=none;align=center;verticalAlign=middle;whiteSpace=wrap;rounded=0;" parent="1" vertex="1"><mxGeometry x="40" y="260" width="130" height="20" as="geometry"/></mxCell><mxCell id="FbLhNRuiKbBXZZqjKNMc-28" value="" style="edgeStyle=orthogonalEdgeStyle;rounded=0;orthogonalLoop=1;jettySize=auto;html=1;" parent="1" source="FbLhNRuiKbBXZZqjKNMc-19" target="FbLhNRuiKbBXZZqjKNMc-27" edge="1"><mxGeometry relative="1" as="geometry"/></mxCell><mxCell id="FbLhNRuiKbBXZZqjKNMc-19" value="" style="rounded=0;whiteSpace=wrap;html=1;strokeWidth=2;fillColor=none;strokeColor=#9673a6;" parent="1" vertex="1"><mxGeometry x="240" y="285" width="180" height="180" as="geometry"/></mxCell><mxCell id="FbLhNRuiKbBXZZqjKNMc-20" value="FE-Service Provider Layer" style="text;html=1;strokeColor=none;fillColor=none;align=center;verticalAlign=middle;whiteSpace=wrap;rounded=0;" parent="1" vertex="1"><mxGeometry x="240" y="265" width="150" height="20" as="geometry"/></mxCell><mxCell id="FbLhNRuiKbBXZZqjKNMc-22" value="" style="endArrow=classic;html=1;rounded=0;exitX=1;exitY=0.5;exitDx=0;exitDy=0;entryX=0;entryY=0.5;entryDx=0;entryDy=0;" parent="1" source="FbLhNRuiKbBXZZqjKNMc-17" target="FbLhNRuiKbBXZZqjKNMc-19" edge="1"><mxGeometry width="50" height="50" relative="1" as="geometry"><mxPoint x="390" y="280" as="sourcePoint"/><mxPoint x="440" y="230" as="targetPoint"/></mxGeometry></mxCell><mxCell id="FbLhNRuiKbBXZZqjKNMc-23" value="" style="endArrow=classic;html=1;rounded=0;exitX=0.25;exitY=1;exitDx=0;exitDy=0;entryX=0.5;entryY=0.054;entryDx=0;entryDy=0;entryPerimeter=0;" parent="1" source="FbLhNRuiKbBXZZqjKNMc-13" target="FbLhNRuiKbBXZZqjKNMc-17" edge="1"><mxGeometry width="50" height="50" relative="1" as="geometry"><mxPoint x="390" y="280" as="sourcePoint"/><mxPoint x="440" y="230" as="targetPoint"/></mxGeometry></mxCell><mxCell id="FbLhNRuiKbBXZZqjKNMc-24" value="" style="endArrow=classic;html=1;rounded=0;exitX=0.75;exitY=1;exitDx=0;exitDy=0;entryX=0.5;entryY=0;entryDx=0;entryDy=0;" parent="1" source="FbLhNRuiKbBXZZqjKNMc-13" target="FbLhNRuiKbBXZZqjKNMc-19" edge="1"><mxGeometry width="50" height="50" relative="1" as="geometry"><mxPoint x="152.5" y="210" as="sourcePoint"/><mxPoint x="130" y="299.99" as="targetPoint"/></mxGeometry></mxCell><mxCell id="FbLhNRuiKbBXZZqjKNMc-25" value="聚合fe服務" style="shape=document;whiteSpace=wrap;html=1;boundedLbl=1;strokeWidth=2;fillColor=none;" parent="1" vertex="1"><mxGeometry x="60" y="510" width="120" height="80" as="geometry"/></mxCell><mxCell id="FbLhNRuiKbBXZZqjKNMc-27" value="one service one db&amp;nbsp;&lt;br&gt;postgreSQL、redis" style="shape=document;whiteSpace=wrap;html=1;boundedLbl=1;strokeWidth=2;fillColor=none;" parent="1" vertex="1"><mxGeometry x="270" y="505" width="120" height="80" as="geometry"/></mxCell><mxCell id="FbLhNRuiKbBXZZqjKNMc-29" value="be-user-aggs" style="rounded=1;whiteSpace=wrap;html=1;" parent="1" vertex="1"><mxGeometry x="730" y="295" width="120" height="60" as="geometry"/></mxCell><mxCell id="FbLhNRuiKbBXZZqjKNMc-30" value="be-game-aggs" style="rounded=1;whiteSpace=wrap;html=1;" parent="1" vertex="1"><mxGeometry x="740" y="340" width="120" height="60" as="geometry"/></mxCell><mxCell id="FbLhNRuiKbBXZZqjKNMc-31" value="..." style="rounded=1;whiteSpace=wrap;html=1;" parent="1" vertex="1"><mxGeometry x="750" y="380" width="120" height="60" as="geometry"/></mxCell><mxCell id="FbLhNRuiKbBXZZqjKNMc-42" value="" style="edgeStyle=orthogonalEdgeStyle;rounded=0;orthogonalLoop=1;jettySize=auto;html=1;" parent="1" source="FbLhNRuiKbBXZZqjKNMc-32" target="FbLhNRuiKbBXZZqjKNMc-38" edge="1"><mxGeometry relative="1" as="geometry"/></mxCell><mxCell id="FbLhNRuiKbBXZZqjKNMc-47" value="" style="edgeStyle=orthogonalEdgeStyle;rounded=0;orthogonalLoop=1;jettySize=auto;html=1;" parent="1" source="FbLhNRuiKbBXZZqjKNMc-32" target="FbLhNRuiKbBXZZqjKNMc-43" edge="1"><mxGeometry relative="1" as="geometry"/></mxCell><mxCell id="FbLhNRuiKbBXZZqjKNMc-32" value="" style="rounded=0;whiteSpace=wrap;html=1;strokeWidth=2;fillColor=none;strokeColor=#6c8ebf;" parent="1" vertex="1"><mxGeometry x="720" y="277.5" width="160" height="185" as="geometry"/></mxCell><mxCell id="FbLhNRuiKbBXZZqjKNMc-33" value="BE-Aggregation Layer" style="text;html=1;strokeColor=none;fillColor=none;align=center;verticalAlign=middle;whiteSpace=wrap;rounded=0;" parent="1" vertex="1"><mxGeometry x="720" y="260" width="130" height="20" as="geometry"/></mxCell><mxCell id="FbLhNRuiKbBXZZqjKNMc-34" value="" style="rounded=0;whiteSpace=wrap;html=1;strokeWidth=1;fillColor=none;dashed=1;strokeColor=#d79b00;glass=0;" parent="1" vertex="1"><mxGeometry x="10" y="10" width="440" height="620" as="geometry"/></mxCell><mxCell id="FbLhNRuiKbBXZZqjKNMc-35" value="be-game" style="rounded=1;whiteSpace=wrap;html=1;" parent="1" vertex="1"><mxGeometry x="960" y="302.5" width="120" height="60" as="geometry"/></mxCell><mxCell id="FbLhNRuiKbBXZZqjKNMc-36" value="be-payment" style="rounded=1;whiteSpace=wrap;html=1;" parent="1" vertex="1"><mxGeometry x="970" y="342.5" width="120" height="60" as="geometry"/></mxCell><mxCell id="FbLhNRuiKbBXZZqjKNMc-37" value="..." style="rounded=1;whiteSpace=wrap;html=1;" parent="1" vertex="1"><mxGeometry x="980" y="382.5" width="120" height="60" as="geometry"/></mxCell><mxCell id="FbLhNRuiKbBXZZqjKNMc-48" value="" style="edgeStyle=orthogonalEdgeStyle;rounded=0;orthogonalLoop=1;jettySize=auto;html=1;" parent="1" source="FbLhNRuiKbBXZZqjKNMc-38" target="FbLhNRuiKbBXZZqjKNMc-44" edge="1"><mxGeometry relative="1" as="geometry"/></mxCell><mxCell id="FbLhNRuiKbBXZZqjKNMc-38" value="" style="rounded=0;whiteSpace=wrap;html=1;strokeWidth=2;fillColor=none;strokeColor=#9673a6;" parent="1" vertex="1"><mxGeometry x="940" y="280" width="180" height="180" as="geometry"/></mxCell><mxCell id="FbLhNRuiKbBXZZqjKNMc-39" value="BE-Service Provider Layer" style="text;html=1;strokeColor=none;fillColor=none;align=center;verticalAlign=middle;whiteSpace=wrap;rounded=0;" parent="1" vertex="1"><mxGeometry x="940" y="262.5" width="150" height="20" as="geometry"/></mxCell><mxCell id="FbLhNRuiKbBXZZqjKNMc-40" value="" style="endArrow=classic;html=1;rounded=0;exitX=0.25;exitY=1;exitDx=0;exitDy=0;" parent="1" source="FbLhNRuiKbBXZZqjKNMc-15" edge="1"><mxGeometry width="50" height="50" relative="1" as="geometry"><mxPoint x="630" y="540" as="sourcePoint"/><mxPoint x="790" y="290" as="targetPoint"/></mxGeometry></mxCell><mxCell id="FbLhNRuiKbBXZZqjKNMc-41" value="" style="endArrow=classic;html=1;rounded=0;exitX=0.75;exitY=1;exitDx=0;exitDy=0;" parent="1" source="FbLhNRuiKbBXZZqjKNMc-15" target="FbLhNRuiKbBXZZqjKNMc-38" edge="1"><mxGeometry width="50" height="50" relative="1" as="geometry"><mxPoint x="630" y="540" as="sourcePoint"/><mxPoint x="680" y="490" as="targetPoint"/></mxGeometry></mxCell><mxCell id="FbLhNRuiKbBXZZqjKNMc-43" value="聚合be服務" style="shape=document;whiteSpace=wrap;html=1;boundedLbl=1;glass=0;strokeWidth=2;fillColor=none;" parent="1" vertex="1"><mxGeometry x="740" y="505" width="120" height="80" as="geometry"/></mxCell><mxCell id="FbLhNRuiKbBXZZqjKNMc-44" value="one service on db&lt;br&gt;MongoDB、Elasticsearch" style="shape=document;whiteSpace=wrap;html=1;boundedLbl=1;glass=0;strokeWidth=2;fillColor=none;" parent="1" vertex="1"><mxGeometry x="970" y="510" width="120" height="80" as="geometry"/></mxCell><mxCell id="FbLhNRuiKbBXZZqjKNMc-49" value="" style="rounded=0;whiteSpace=wrap;html=1;strokeWidth=1;fillColor=none;dashed=1;strokeColor=#d79b00;glass=0;" parent="1" vertex="1"><mxGeometry x="700" y="10" width="440" height="620" as="geometry"/></mxCell><mxCell id="FbLhNRuiKbBXZZqjKNMc-51" value="" style="edgeStyle=orthogonalEdgeStyle;rounded=0;orthogonalLoop=1;jettySize=auto;html=1;" parent="1" source="FbLhNRuiKbBXZZqjKNMc-50" target="FbLhNRuiKbBXZZqjKNMc-49" edge="1"><mxGeometry relative="1" as="geometry"/></mxCell><mxCell id="FbLhNRuiKbBXZZqjKNMc-52" value="" style="edgeStyle=orthogonalEdgeStyle;rounded=0;orthogonalLoop=1;jettySize=auto;html=1;" parent="1" source="FbLhNRuiKbBXZZqjKNMc-50" target="FbLhNRuiKbBXZZqjKNMc-34" edge="1"><mxGeometry relative="1" as="geometry"/></mxCell><mxCell id="FbLhNRuiKbBXZZqjKNMc-50" value="RabbitMQ" style="ellipse;shape=cloud;whiteSpace=wrap;html=1;glass=0;strokeWidth=2;fillColor=none;" parent="1" vertex="1"><mxGeometry x="490" y="260" width="180" height="120" as="geometry"/></mxCell></root></mxGraphModel>